<svg width="24" height="24" viewBox="0 0 24 24" fill="none" xmlns="http://www.w3.org/2000/svg">
<path d="M13.7778 8C14.3671 8 14.9324 8.23413 15.3491 8.65087C15.7659 9.06762 16 9.63285 16 10.2222V13.7778C16 14.3671 15.7659 14.9324 15.3491 15.3491C14.9324 15.7659 14.3671 16 13.7778 16H10.2222C9.63285 16 9.06762 15.7659 8.65087 15.3491C8.23413 14.9324 8 14.3671 8 13.7778V10.2222C8 9.63285 8.23413 9.06762 8.65087 8.65087C9.06762 8.23413 9.63285 8 10.2222 8H13.7778ZM12 10.2222C11.5285 10.2222 11.0763 10.4095 10.7429 10.7429C10.4095 11.0763 10.2222 11.5285 10.2222 12C10.2222 12.4715 10.4095 12.9237 10.7429 13.2571C11.0763 13.5905 11.5285 13.7778 12 13.7778C12.4715 13.7778 12.9237 13.5905 13.2571 13.2571C13.5905 12.9237 13.7778 12.4715 13.7778 12C13.7778 11.5285 13.5905 11.0763 13.2571 10.7429C12.9237 10.4095 12.4715 10.2222 12 10.2222ZM12 11.1111C12.2357 11.1111 12.4618 11.2048 12.6285 11.3715C12.7952 11.5382 12.8889 11.7643 12.8889 12C12.8889 12.2357 12.7952 12.4618 12.6285 12.6285C12.4618 12.7952 12.2357 12.8889 12 12.8889C11.7643 12.8889 11.5382 12.7952 11.3715 12.6285C11.2048 12.4618 11.1111 12.2357 11.1111 12C11.1111 11.7643 11.2048 11.5382 11.3715 11.3715C11.5382 11.2048 11.7643 11.1111 12 11.1111ZM14 9.55556C13.8821 9.55556 13.7691 9.60238 13.6857 9.68573C13.6024 9.76908 13.5556 9.88213 13.5556 10C13.5556 10.1179 13.6024 10.2309 13.6857 10.3143C13.7691 10.3976 13.8821 10.4444 14 10.4444C14.1179 10.4444 14.2309 10.3976 14.3143 10.3143C14.3976 10.2309 14.4444 10.1179 14.4444 10C14.4444 9.88213 14.3976 9.76908 14.3143 9.68573C14.2309 9.60238 14.1179 9.55556 14 9.55556Z" fill="white"/>
<circle cx="12" cy="12" r="8" stroke="white" stroke-width="2"/>
</svg>
