<svg width="24" height="24" viewBox="0 0 24 24" fill="none" xmlns="http://www.w3.org/2000/svg">
<path d="M15.279 10.283C15.6377 10.063 15.8753 9.76167 15.992 9.379C15.6638 9.55597 15.3119 9.68495 14.947 9.762C14.7977 9.59781 14.615 9.46758 14.4111 9.38012C14.2071 9.29265 13.9868 9.24998 13.765 9.255C13.301 9.255 12.91 9.418 12.59 9.734C12.4365 9.88494 12.3151 10.0653 12.233 10.2643C12.1508 10.4632 12.1097 10.6768 12.112 10.892C12.112 11.03 12.1293 11.1513 12.164 11.256C10.7953 11.2093 9.665 10.6407 8.773 9.55C8.62651 9.7986 8.54821 10.0815 8.546 10.37C8.546 10.948 8.78933 11.4057 9.276 11.743C9.02057 11.726 8.7717 11.6548 8.546 11.534C8.546 11.947 8.667 12.292 8.911 12.596C9.15433 12.896 9.46733 13.087 9.85 13.169C9.70789 13.2054 9.56168 13.2232 9.415 13.222C9.31489 13.2283 9.21447 13.2158 9.119 13.185C9.223 13.5217 9.41433 13.7943 9.693 14.003C9.97033 14.213 10.2893 14.323 10.65 14.333C10.072 14.7921 9.35307 15.0373 8.615 15.027C8.427 15.027 8.295 15.025 8.215 15.01C8.96456 15.4978 9.84173 15.7529 10.736 15.743C11.6873 15.743 12.528 15.502 13.258 15.02C13.9893 14.54 14.5283 13.951 14.875 13.253C15.2174 12.5794 15.3959 11.8346 15.396 11.079V10.87C15.732 10.6167 16.0047 10.332 16.214 10.016C15.9163 10.1481 15.6016 10.2379 15.279 10.283ZM12 21C9.51 21 7.365 20.11 5.624 18.354C3.883 16.603 3 14.465 3 12C3 9.512 3.884 7.366 5.627 5.625C7.367 3.884 9.511 3 12 3C14.466 3 16.604 3.883 18.354 5.624C20.11 7.366 21 9.512 21 12C21 14.465 20.111 16.604 18.356 18.357C16.605 20.11 14.467 21 12 21ZM12 5C10.034 5 8.412 5.667 7.042 7.04C5.667 8.412 5 10.034 5 12C5 13.944 5.668 15.562 7.043 16.945C8.415 18.328 10.036 19 12 19C13.943 19 15.56 18.327 16.942 16.943C18.327 15.559 19 13.941 19 12C19 10.037 18.328 8.415 16.945 7.043C15.562 5.668 13.945 5 12 5Z" fill="white"/>
</svg>
